P2
9 7
15
0 0 0 0 0 0 0 0 0
0 6 6 8 8 10 10 12 0
0 6 6 8 8 10 10 12 0
0 12 12 10 10 8 8 6 0
0 14 15 15 15 15 14 14 0
0 15 15 15 15 14 14 14 0
0 0 0 0 0 0 0 0 0
